<svg xmlns="http://www.w3.org/2000/svg" 
xmlns:xlink="http://www.w3.org/1999/xlink" 
viewBox="0 0 160 32">
<linearGradient id="b" x1="-9684.738" x2="-9653.599" y1="-1002.329" y2="-1002.329" gradientTransform="rotate(-110 -4469.835 -3884.514)" gradientUnits="userSpaceOnUse"><stop offset="0" stop-color="#4e51c4"/><stop offset="1" stop-color="#2197ff"/></linearGradient><linearGradient id="a" x1="154759.937" x2="155759.149" y1="142012.961" y2="139357.675" gradientTransform="matrix(.0194 0 0 .0193 -2991.31 -2695.691)" gradientUnits="userSpaceOnUse"><stop offset="0" stop-color="#e2e3f3"/><stop offset=".396" stop-color="#ebebfb"/><stop offset=".69" stop-color="#eeeefe"/><stop offset="1" stop-color="#eeeefe"/></linearGradient>
<linearGradient id="c" x1="185312.137" x2="184520.235" y1="-164622.863" y2="-162629.086" gradientTransform="matrix(.0168 .0005 .0005 -.0168 -3003.753 -2822.186)" gradientUnits="userSpaceOnUse"><stop offset=".324" stop-color="#eeeefe"/><stop offset=".723" stop-color="#d2d4e5"/>
<stop offset=".801" stop-color="#b0b5c6"/><stop offset=".972" stop-color="#5a6579"/><stop offset=".989" stop-color="#515d71"/></linearGradient><linearGradient xlink:href="#a" id="d" x1="154936.186" x2="156107.334" y1="141840.319" y2="138728.126"/><linearGradient id="e" x1="184354.377" x2="183742.119" y1="-166410.024" y2="-163320.11" gradientTransform="matrix(.0168 .0004 .0004 -.0168 -3004.14 -2822.997)" gradientUnits="userSpaceOnUse"><stop offset=".307" stop-color="#eeeefe"/><stop offset=".578" stop-color="#d2d4e5"/><stop offset=".661" stop-color="#b0b5c6"/><stop offset=".843" stop-color="#5a6579"/><stop offset=".86" stop-color="#515d71"/></linearGradient><linearGradient xlink:href="#a" id="f" x1="154255.977" x2="155534.269" y1="142093.282" y2="138696.372"/><linearGradient id="g" x1="179135.541" x2="180315.504" y1="-169297.92" y2="-169297.92" gradientTransform="matrix(.0168 0 0 -.0168 -3005.155 -2824.87)" gradientUnits="userSpaceOnUse"><stop offset="0" stop-color="#eeeefe"/><stop offset=".422" stop-color="#c5c8d9"/><stop offset=".763" stop-color="#757e91"/></linearGradient><linearGradient id="h" x1="180225.666" x2="179535.797" y1="-169077.422" y2="-168472.15" gradientTransform="matrix(.0168 0 0 -.0168 -3005.155 -2824.87)" gradientUnits="userSpaceOnUse"><stop offset=".324" stop-color="#eeeefe"/><stop offset=".595" stop-color="#d2d4e5"/><stop offset=".755" stop-color="#989eb1"/><stop offset=".912" stop-color="#656f83"/><stop offset=".989" stop-color="#515d71"/></linearGradient><linearGradient id="i" x1="97.759" x2="97.759" y1="30.521" y2="2.439" gradientUnits="userSpaceOnUse"><stop offset=".146" stop-color="#4e51c6"/><stop offset=".726" stop-color="#2199ff"/></linearGradient><circle cx="17" cy="16" r="15" fill="url(#b)"/><path fill="url(#a)" d="M22.756 8.451c-6.474 2.28-8.386 18.112-8.386 18.112s-.107.731.364.755c0 0 .56.138.689-.605.006-.037.022-.072.03-.109.191-.953 2.936-14.216 9.049-14.442a6.006 6.006 0 0 1 2.982.608.768.768 0 0 1 .04.022.656.656 0 0 0 .78-.043.962.962 0 0 0 .137-.166 1.272 1.272 0 0 0 .124-1.217 4.318 4.318 0 0 0-5.809-2.915z"/><path fill="url(#c)" d="M15.46 26.483c3.859-23.02 12.065-13.69 12.065-13.69a5.616 5.616 0 0 0-1.964-.596c-1.641-.186-3.526.187-5.545 2.929 0 0-2.291 2.723-3.878 8.652z"/><path fill="url(#d)" d="M25.37 17.1c-3.188-.604-7.42 9.2-7.42 9.2-.278.575-.578.456-.578.456-.343-.072-.193-.649-.193-.649s2.747-11.597 7.16-12.026a2.655 2.655 0 0 1 2.958 2.929s0 1.032-.878.6a3.184 3.184 0 0 0-1.049-.51z"/><path fill="url(#e)" d="M26.418 17.61a3.035 3.035 0 0 0-1.048-.51c-3.112-.535-7.394 9.14-7.394 9.14s2.142-7.193 5.422-9.81c0 0 2.014-1.473 3.02 1.18z"/><path fill="url(#f)" d="M21.733 5.434a3.248 3.248 0 0 0-3.369-.563 4.941 4.941 0 0 0-2.98 3.745s-.514 2.016-.835 3.936a23.697 23.697 0 0 1-1.032 4.02c-1.885 5.648-4.006 5.606-4.006 5.606-1.78 0-2.722-2.352-2.722-2.352-.099-.243-.452-.604-.833-.344a.513.513 0 0 0-.159.229 2.723 2.723 0 0 0-.018 1.123c.643 3.984 3.11 4.633 3.11 4.633 3.88 1.176 5.338-5.69 5.338-5.69.022-.073 1.838-7.18 4.38-10.407a8.683 8.683 0 0 1 1.992-1.79c.294-.19 1.206-.663 1.377-.807.227-.19.33-.814-.243-1.34z"/><path fill="url(#g)" d="M13.548 16.484c-1.793 4.964-3.992 4.84-3.992 4.84a3.404 3.404 0 0 1-2.767-1.498s.944 2.361 2.724 2.361c0 0 2.412.119 4.035-5.703z"/><path fill="url(#h)" d="M15.1 16.847c1.913-13.423 6.578-9.884 6.578-9.884-.446.223-1.17.679-1.206.7a8.823 8.823 0 0 0-1.839 1.673c-1.402 1.588-3.533 7.511-3.533 7.511z"/><path fill="url(#i)" d="M64.904 5.94a4.464 4.464 0 0 0-2.427-.69 4.84 4.84 0 0 0-3.211 1.15c-1.488 1.303-3.838 4.753-5.639 8.279a37.644 37.644 0 0 1-5.874.23c1.41-3.143 2.585-6.056 2.585-7.129 0-2.223-1.88-2.453-3.524-2.376a50.077 50.077 0 0 1-3.368 8.815 9.205 9.205 0 0 1-2.427-1.303 1.81 1.81 0 0 0-.392 1.073 2.468 2.468 0 0 0 1.801 2.376 67.687 67.687 0 0 1-5.168 8.892 4.429 4.429 0 0 0 2.662.766c1.723 0 2.428-.613 3.446-2.376 1.018-1.763 2.35-4.369 3.446-6.745a38.824 38.824 0 0 0 5.952-.383 19.807 19.807 0 0 0-2.115 7.205c0 2.223 2.193 3.526 3.838 3.526.156-7.435 6.421-17.86 10.415-21.31zm3.446 7.052c-5.012 0-10.416 4.906-10.416 9.736 0 1.84 1.097 3.142 3.525 3.142 5.873 0 10.102-6.592 10.102-10.195.078-1.993-1.175-2.683-3.21-2.683zm-4.855 10.272h-.079a.763.763 0 0 1-.705-.92c0-3.22 3.838-7.588 5.952-7.588.548 0 .783.306.783.92-.078 2.605-3.132 7.588-5.951 7.588zM79.549 12.84c-3.68 0-6.735 2.913-6.735 4.83 0 1.916 1.41 3.372 1.41 4.599a1.889 1.889 0 0 1-1.713 2.06 2.002 2.002 0 0 1-.167.01 1.754 1.754 0 0 1-1.645-1.304 1.643 1.643 0 0 0-1.253 1.456c0 .767.783 1.303 2.506 1.303 3.525 0 6.266-2.376 6.266-4.215 0-1.84-1.175-3.143-1.175-4.6 0-1.456.783-2.606 2.114-2.606a1.756 1.756 0 0 1 1.645 1.227 1.543 1.543 0 0 0 1.253-1.457c0-.69-.705-1.303-2.506-1.303zm13.705.613h-2.976a22.62 22.62 0 0 1 2.897-3.22 4.436 4.436 0 0 0-5.168.46 18.556 18.556 0 0 0-2.115 2.76h-1.41a1.622 1.622 0 0 0-1.644 1.533h2.115c-1.41 2.53-2.663 4.983-2.663 7.513a3.265 3.265 0 0 0 3.524 3.525c-.235-3.065 1.488-7.588 3.524-11.038h2.271a1.622 1.622 0 0 0 1.645-1.533zm17.464-.92c-.94 3.22-4.308 10.349-6.735 10.349h-.079a.576.576 0 0 1-.391-.537c0-1.84 2.819-6.132 2.819-7.588 0-1.457-1.41-1.917-3.054-1.993-1.41 3.602-6.109 9.888-7.831 9.888h-.157a.436.436 0 0 1-.313-.537c.078-1.916 2.192-5.902 4.62-8.738a3.339 3.339 0 0 0-2.036-.613 4.262 4.262 0 0 0-3.446 1.303 17.612 17.612 0 0 0-3.837 9.735 1.611 1.611 0 0 0 1.801 1.84c3.133 0 5.952-3.067 7.988-5.367a8.08 8.08 0 0 0-.783 3.067 1.955 1.955 0 0 0 1.958 2.223c5.325 0 11.277-8.355 11.277-11.115a2.142 2.142 0 0 0-1.801-1.916zm4.62.69c-1.253 3.067-4.62 7.206-4.62 10.119a3.32 3.32 0 0 0 3.21 3.296v-.307c0-4.676 4.7-8.278 4.7-10.808 0-2.146-2.037-2.3-3.29-2.3zm15.794-.076a1.995 1.995 0 0 0-.21 0c-2.349 0-4.385 1.686-6.421 3.603a4.172 4.172 0 0 0 .783-1.917c0-1.916-1.958-1.993-3.133-1.993-1.096 4.293-4.933 7.665-4.933 10.348v.077a2.463 2.463 0 0 0 2.605 2.303l.057-.004c1.88-4.829 6.657-9.734 8.223-9.734a.432.432 0 0 1 .392.46c0 1.61-2.898 5.212-2.898 7.205a3.043 3.043 0 0 0 2.875 3.213q.129.009.258.006c.783-4.752 4.229-8.125 4.229-11.574a1.909 1.909 0 0 0-1.827-1.993zm23.206-7.129s-.47-.613-1.957-.613c-2.976 0-4.934 2.76-7.597 7.588h-.783c-6.735 0-11.747 5.366-11.747 10.042a2.289 2.289 0 0 0 2.35 2.606c2.975 0 5.56-3.296 6.186-3.986a1.847 1.847 0 0 0-.078.92c0 2.07 1.096 3.756 3.21 3.756.236-7.052 6.266-16.787 10.416-20.313zm-16.994 16.48c-.235 0-.47-.23-.47-.613 0-2.3 2.898-7.358 6.657-7.358l.627.076c-1.645 2.606-4.778 7.896-6.814 7.896zm18.404-9.658c-3.68 0-6.735 2.913-6.735 4.83 0 1.916 1.331 3.372 1.331 4.599a1.84 1.84 0 0 1-1.8 2.07 1.754 1.754 0 0 1-1.646-1.304 1.643 1.643 0 0 0-1.252 1.456c0 .767.704 1.303 2.506 1.303 3.524 0 6.265-2.376 6.265-4.215 0-1.84-1.175-3.143-1.175-4.6 0-1.456.783-2.606 2.114-2.606a1.756 1.756 0 0 1 1.645 1.227 1.543 1.543 0 0 0 1.253-1.457c.079-.69-.705-1.303-2.506-1.303zm-37.277-.69a2.07 2.07 0 1 0-2.115-2.07 2.092 2.092 0 0 0 2.115 2.07z"/></svg>